<svg width="48" height="48" viewBox="0 0 48 48" fill="none" xmlns="http://www.w3.org/2000/svg">
<path d="M24 40.031C26.531 40.031 28.969 39.281 31.031 38.062L11.906 18.937C10.687 21 10.031 23.437 10.031 25.968C10.031 33.749 16.219 40.031 24 40.031ZM6.00002 7.96899L41.531 43.5L39 46.031L33.937 40.968C31.031 42.843 27.656 43.968 23.999 43.968C14.061 43.968 5.99902 35.905 5.99902 25.968C5.99902 22.312 7.12402 18.843 8.99902 16.03L3.46802 10.499L6.00002 7.96899ZM22.031 18.844V16.031H25.969V22.875L22.031 18.844ZM30 1.96899V5.99999H18V1.96899H30ZM38.063 9.09399L40.876 11.907L38.063 14.813C40.501 17.907 42.001 21.751 42.001 25.969C42.001 29.625 40.876 33.094 39.001 35.907L36.095 33.001C37.314 30.938 37.97 28.501 37.97 25.97C37.97 18.189 31.782 12.001 24.001 12.001C21.47 12.001 19.126 12.657 17.063 13.876L14.063 10.97C16.876 9.09499 20.344 7.96999 24.001 7.96999C28.22 7.96999 32.157 9.46999 35.251 11.908L38.063 9.09399Z" fill="#333333"/>
</svg>
