<svg width="17" height="20" viewBox="0 0 17 20" fill="none" xmlns="http://www.w3.org/2000/svg">
<path d="M7.36298 2.03468L7.36298 15.1356L2.07632 9.412C1.65381 8.95458 0.960481 8.95458 0.537983 9.412C0.115482 9.86942 0.115482 10.6083 0.537982 11.0657L7.67715 18.7949C8.09965 19.2523 8.78215 19.2523 9.20465 18.7949L16.3546 11.0775C16.5575 10.8583 16.6715 10.5608 16.6715 10.2506C16.6715 9.94036 16.5575 9.64286 16.3546 9.42373C15.9321 8.96631 15.2496 8.96631 14.8271 9.42373L9.52965 15.1356L9.52965 2.03468C9.52965 1.38961 9.04215 0.861816 8.44632 0.861816C7.85048 0.861816 7.36298 1.38961 7.36298 2.03468Z" fill="#37474F"/>
</svg>
