<svg width="19" height="18" viewBox="0 0 19 18" fill="none" xmlns="http://www.w3.org/2000/svg">
<path d="M1.48109 10.0833H14.582L8.85841 15.37C8.401 15.7925 8.401 16.4858 8.85841 16.9083C9.31583 17.3308 10.0547 17.3308 10.5122 16.9083L18.2413 9.76916C18.6988 9.34666 18.6988 8.66416 18.2413 8.24166L10.5239 1.09166C10.3048 0.888806 10.0073 0.774803 9.69701 0.774803C9.38677 0.774803 9.08927 0.888806 8.87014 1.09166C8.41273 1.51416 8.41273 2.19666 8.87014 2.61916L14.582 7.91666H1.48109C0.836017 7.91666 0.308228 8.40416 0.308228 9C0.308228 9.59583 0.836017 10.0833 1.48109 10.0833Z" fill="#37474F"/>
</svg>
