<svg width="17" height="16" viewBox="0 0 17 16" fill="none" xmlns="http://www.w3.org/2000/svg">
<path fill-rule="evenodd" clip-rule="evenodd" d="M15.1097 1.32258C14.271 0.451613 13.0774 0 11.7226 0H5.07744C2.27099 0 0.400024 1.87097 0.400024 4.67742V11.2903C0.400024 12.6774 0.851637 13.871 1.75486 14.7419C2.62583 15.5806 3.78712 16 5.1097 16H11.6903C13.0774 16 14.2387 15.5484 15.0774 14.7419C15.9484 13.9032 16.4 12.7097 16.4 11.3226V4.67742C16.4 3.32258 15.9484 2.16129 15.1097 1.32258ZM12.6903 4.67742C13.207 4.67742 13.6258 4.25859 13.6258 3.74194C13.6258 3.22528 13.207 2.80645 12.6903 2.80645C12.1737 2.80645 11.7549 3.22528 11.7549 3.74194C11.7549 4.25859 12.1737 4.67742 12.6903 4.67742ZM8.40002 3.83871C6.14196 3.83871 4.27099 5.67742 4.27099 7.96774C4.27099 10.2581 6.1097 12.0968 8.40002 12.0968C10.6903 12.0968 12.5291 10.2258 12.5291 7.96774C12.5291 5.70968 10.6581 3.83871 8.40002 3.83871ZM8.40002 10.6129C6.94841 10.6129 5.75486 9.41936 5.75486 7.96774C5.75486 6.51613 6.94841 5.32258 8.40002 5.32258C9.85164 5.32258 11.0452 6.51613 11.0452 7.96774C11.0452 9.41936 9.85164 10.6129 8.40002 10.6129ZM14.0452 13.6774C14.6258 13.129 14.9807 12.3226 14.9807 11.3226V4.67742C14.9807 3.74194 14.6581 2.93548 14.1097 2.35484C13.5291 1.77419 12.7226 1.48387 11.7549 1.48387H5.1097C4.14196 1.48387 3.30325 1.77419 2.75486 2.32258C2.17422 2.90323 1.8839 3.70968 1.8839 4.67742V11.2903C1.8839 12.2903 2.17422 13.0968 2.75486 13.6774C3.33551 14.2258 4.14196 14.5161 5.1097 14.5161H11.6903C12.6581 14.5161 13.4645 14.2258 14.0452 13.6774Z" fill="white"/>
</svg>
