<svg width="17" height="14" viewBox="0 0 17 14" fill="none" xmlns="http://www.w3.org/2000/svg">
<path fill-rule="evenodd" clip-rule="evenodd" d="M9.61102 0.442433C10.9075 0.187522 12.0718 0.372444 13.0524 0.845703C13.1059 0.871509 13.1576 0.897527 13.2074 0.92365L14.1683 0.534782C15.1579 0.134293 16.2038 0.971969 16.0299 2.02462C16.5011 2.54231 16.5759 3.40731 15.939 3.97698L14.9535 4.85854C14.9656 5.94253 14.8169 6.9144 14.3604 7.99774C13.5466 9.92875 12.3797 11.381 10.952 12.3912C9.94289 13.1052 8.8632 13.5586 7.77508 13.8025C7.07178 13.9602 6.47515 14.0094 6.03615 13.9985C4.69603 14.0136 3.46164 13.7302 2.3603 13.2481C1.70502 12.9612 1.22361 12.6649 0.934313 12.4414C-0.111556 11.6334 0.48387 9.95917 1.80503 9.99302C2.05866 9.99952 2.29622 9.9958 2.5184 9.98291C2.09771 9.48413 1.8744 8.98257 1.78371 8.56986C1.75222 8.42652 1.74436 8.28446 1.75722 8.14731C1.66992 8.04197 1.58853 7.93268 1.5131 7.81962C0.978535 7.01846 0.820813 6.19484 0.865087 5.49159C0.868279 5.44822 0.869477 5.43194 0.871049 5.4157L0.874801 5.38059C0.898842 5.17633 0.964465 4.99195 1.06083 4.83227C0.777738 3.93044 0.842 3.0236 1.1087 2.16979C1.19544 1.8921 1.28677 1.67491 1.36088 1.52915C1.80244 0.660694 2.98484 0.519746 3.61817 1.26007C4.61537 2.42572 5.60034 3.11878 6.53973 3.45461C6.65627 3.49627 6.76824 3.53127 6.87535 3.56029C7.17437 1.67279 8.4168 0.54389 9.61102 0.442433ZM8.20987 5.16098C8.20987 5.16098 5.73758 5.73432 2.97883 2.50955C2.97883 2.50955 1.90398 4.62356 3.76723 5.91325C3.76723 5.91325 3.1584 6.02078 2.65625 5.66271C2.65625 5.66271 2.44119 7.48983 4.66272 8.2064H3.48034C3.48034 8.2064 3.80314 9.67545 5.88102 9.99782C5.88102 9.99782 5.02122 11.1443 2.22635 11.0727C2.22635 11.0727 3.80314 12.2908 6.20381 12.2548C6.20381 12.2548 10.6462 12.4699 12.7602 7.4537C13.28 6.22011 13.2261 5.05345 13.1901 4.4799L14.5517 3.26203L13.1901 3.51279C13.1901 3.51279 14.1218 2.83213 14.2295 2.18718L12.7245 2.79622C12.7245 2.79622 11.5959 1.77513 9.67892 2.18718C9.67871 2.18718 7.92341 2.54546 8.20987 5.16098Z" fill="white"/>
</svg>
