<svg width="9" height="17" viewBox="0 0 9 17" fill="none" xmlns="http://www.w3.org/2000/svg">
<path d="M7.8 0.327637C8.35228 0.327637 8.8 0.775352 8.8 1.32764V2.52764C8.8 3.07992 8.35228 3.52764 7.8 3.52764H6.4C5.848 3.52764 5.6 4.17564 5.6 4.72764V6.72764H7C7.55229 6.72764 8 7.17535 8 7.72764V8.92764C8 9.47992 7.55228 9.92764 7 9.92764H5.6V15.3276C5.6 15.8799 5.15228 16.3276 4.6 16.3276H3.4C2.84772 16.3276 2.4 15.8799 2.4 15.3276V9.92764H0.999999C0.447715 9.92764 0 9.47992 0 8.92764V7.72764C0 7.17535 0.447715 6.72764 1 6.72764H2.4V3.52764C2.4 1.76033 3.83269 0.327637 5.6 0.327637H7.8Z" fill="white"/>
</svg>
