<svg width="155" height="50" viewBox="0 0 155 50" fill="none" xmlns="http://www.w3.org/2000/svg">
<g clip-path="url(#clip0_104_834)">
<path d="M37.8095 32.8572C37.5714 33.0952 37.2856 33.3333 37.0476 33.5714C36.4285 34.1429 35.7142 34.1429 35.1904 33.5714C34.6666 33.0476 34.6666 32.2857 35.1904 31.7143C35.8571 31.0476 36.5237 30.381 37.1904 29.6667C39.1428 27.7143 41.1428 25.7619 43.0476 23.7619C44.1904 22.5714 44.1904 20.5714 43.0952 19.381C41.9047 18.0953 39.9999 17.9524 38.619 19.0476C37.5714 19.9048 36.7618 21 35.7618 21.9048C34.7142 22.7619 33.8095 23.8095 32.8571 24.7619C30.9999 26.6191 29.1428 28.4762 27.2856 30.3333C25.7142 31.9048 24.0952 33.5238 22.5237 35.0952C22.0476 35.5714 21.1904 35.5714 20.7142 35.1429C20.1428 34.6191 20.1428 33.8572 20.619 33.2857C20.7142 33.1905 20.8095 33.0476 20.9523 32.9524C24.1428 29.8095 27.2856 26.6191 30.4761 23.4286C30.7618 23.1429 30.9999 22.8095 31.1904 22.4762C31.9047 21 31.4761 19.2857 30.2856 18.381C28.8095 17.3333 27.1904 17.4762 25.9047 18.7619C25.3333 19.2857 24.8095 19.8572 24.238 20.381C24.0952 20.5238 23.8571 20.6667 23.6666 20.7143C23.0476 20.8572 22.5237 20.5714 22.238 20C21.9523 19.4286 22.0952 18.8572 22.619 18.381C25.0952 15.9048 27.5237 13.4762 29.9999 11C31.2856 9.7143 31.2856 7.66668 29.9999 6.38096C28.8095 5.14287 26.6666 5.14287 25.4285 6.38096C23.9523 7.85715 22.4761 9.28573 20.9999 10.7619C18.3333 13.4286 15.7142 16.0476 13.0476 18.7143C12.3809 19.381 11.5237 19.4286 10.9999 18.8572C10.4761 18.2857 10.5237 17.5238 11.1904 16.8572C12.3333 15.7143 13.4761 14.6191 14.619 13.4286C15.9047 12.0953 15.8095 10.0476 14.4761 8.76192C13.1904 7.57144 11.1904 7.61906 9.9047 8.90477C7.28565 11.5238 4.66661 14.1429 2.04756 16.7619C0.52375 18.0953 0.476131 20 1.80946 21.4286C2.99994 22.7143 5.09518 22.7143 6.42851 21.4762C6.71422 21.1905 6.99994 20.9048 7.28565 20.6191C7.99994 20 8.99994 20.2857 9.33327 21.1429C9.61899 21.8572 9.23803 22.381 8.76184 22.8572C6.33327 25.2857 3.80946 27.7619 1.33327 30.2857C-5.9545e-05 31.6191 -0.0952976 33.6191 1.09518 34.9048C2.42851 36.3333 4.42851 36.4286 5.80946 35.0952C7.09518 33.8572 8.33327 32.6191 9.57137 31.381C12.5714 28.381 15.5714 25.381 18.5714 22.3333C19.1428 21.7619 19.9999 21.7143 20.5237 22.2381C21.0476 22.7619 21.0476 23.6191 20.4285 24.1905C17.8571 26.7619 15.2857 29.3333 12.6666 31.9048C10.5237 34.0476 8.38089 36.1905 6.23803 38.3333C4.95232 39.6191 4.9047 41.4762 6.09518 42.8572C7.1428 44.0953 9.09518 44.3333 10.4761 43.2857C11.0476 42.8572 11.5714 42.2857 12.0952 41.7619C13.6666 40.1905 15.238 38.6191 16.8095 37.0476C17.5714 36.2857 18.7142 36.4762 19.0476 37.4762C19.2857 38.0952 19.0476 38.5238 18.619 38.9524C17.1428 40.4286 15.6666 41.9048 14.1904 43.4286C12.9047 44.7143 12.9999 46.7143 14.3333 48.0476C15.5237 49.2381 17.5237 49.2857 18.8095 48.0953C19.3809 47.5714 19.9523 47 20.4761 46.4762C24.0952 42.8572 27.7142 39.1905 31.3809 35.5714C31.9047 35.0476 32.7142 35.0476 33.238 35.4762C33.7618 35.9524 33.8095 36.7143 33.3333 37.2857C33.0952 37.5714 32.8095 37.8095 32.5714 38.0953C31.5714 39.1429 31.2857 40.4286 31.8095 41.7143C32.3333 42.9524 33.4761 43.7143 34.8095 43.7143C35.5714 43.7143 36.3333 43.5238 36.9047 43C38.8095 41.1429 40.6666 39.2857 42.4761 37.381C43.7142 36.0476 43.619 34.0952 42.3333 32.8572C41.0952 31.5714 39.0952 31.6191 37.8095 32.8572Z" fill="white"/>
<path d="M35.3809 17.0951C37.238 17.0951 38.7142 15.6189 38.7142 13.7618C38.7142 11.9999 37.238 10.5237 35.4761 10.5237C33.6666 10.5237 32.1904 11.9999 32.1904 13.8094C32.1904 15.5713 33.619 17.0475 35.3809 17.0951Z" fill="white"/>
<path d="M18.7618 7.66664C20.6189 7.66664 22.0951 6.19045 22.0951 4.33331C22.0951 2.57141 20.6189 1.09521 18.857 1.09521C17.0475 1.09521 15.5713 2.57141 15.5713 4.38093C15.6189 6.19045 17.0475 7.66664 18.7618 7.66664Z" fill="white"/>
<path d="M46.3333 26.0476C44.5238 26.0476 43.0476 27.5238 43.0476 29.3333C43.0476 31.0952 44.4762 32.5714 46.2381 32.619C48.0952 32.619 49.5714 31.1428 49.5714 29.2857C49.5714 27.5238 48.0952 26.0476 46.3333 26.0476Z" fill="white"/>
<path d="M67.9522 26.7618C67.857 27.1904 67.4761 27.5237 66.9999 27.5237H62.5713C60.7141 27.5237 59.4284 27.2856 58.6189 26.857C57.857 26.4285 57.476 25.5713 57.476 24.2856C57.476 23.7142 57.5713 23.0475 57.7141 22.238L59.1903 14.6189H57.8094C57.1903 14.6189 56.7618 14.0951 56.857 13.4761L57.2856 11.1904C57.3332 11.0475 57.3808 10.9046 57.476 10.8094L60.4284 6.85703C60.6189 6.61893 60.9046 6.47607 61.1903 6.47607H64.7618C65.3808 6.47607 65.8094 6.99988 65.7141 7.61893L65.0475 10.9523H69.0951C69.7142 10.9523 70.1427 11.4761 70.0475 12.0951L69.7141 13.8094C69.6189 14.238 69.238 14.5713 68.7618 14.5713H64.3332L62.7618 22.6665C62.7618 22.7618 62.7618 22.857 62.7618 22.9523C62.7618 23.238 62.9999 23.3808 63.5237 23.3808H67.3808C67.9999 23.3808 68.4284 23.9046 68.3332 24.5237L67.9522 26.7618Z" fill="white"/>
<path d="M95.0475 26.7617C94.9523 27.1903 94.5713 27.5236 94.0951 27.5236H81.1904C78.9999 27.5236 77.4761 27.1903 76.6666 26.5236C75.857 25.8569 75.6666 24.5712 75.9999 22.6188L77.3332 15.7141C77.7142 13.7141 78.3808 12.3808 79.238 11.7617C80.0951 11.1427 81.6189 10.8093 83.7142 10.8093H92.1428C94.3332 10.8093 95.857 11.1427 96.6666 11.7617C97.4761 12.4284 97.7142 13.7141 97.3332 15.6188L96.4761 20.2379C96.3808 20.6665 95.9999 20.9998 95.5237 20.9998H81.4285L81.0475 22.9998C80.9999 23.2855 80.9999 23.4284 81.0951 23.5236C81.1904 23.6189 81.4285 23.6665 81.7142 23.6665H94.4761C95.0951 23.6665 95.5237 24.1903 95.4285 24.8093L95.0475 26.7617ZM92.0951 17.8093L92.5713 15.1427C92.6189 14.8569 92.6189 14.6665 92.5237 14.6188C92.4285 14.5236 92.238 14.5236 91.9047 14.5236H83.4761C83.1904 14.5236 82.9523 14.5712 82.8094 14.6188C82.6666 14.7141 82.5713 14.8569 82.5237 15.1427L82.0475 17.8093H92.0951Z" fill="white"/>
<path d="M122.809 26.7619C122.714 27.1905 122.333 27.5238 121.857 27.5238H109.667C107.809 27.5238 106.476 27.2857 105.667 26.8571C104.857 26.4286 104.428 25.5714 104.428 24.2857C104.428 23.8095 104.476 23.2381 104.619 22.5714L105.905 15.9524C106.286 13.9524 106.952 12.6667 107.857 12C108.762 11.3333 110.286 11 112.381 11H124.286C124.905 11 125.333 11.5238 125.238 12.1429L124.857 14.0476C124.762 14.4762 124.381 14.8095 123.905 14.8095H112.333C112.048 14.8095 111.809 14.8571 111.667 14.9524C111.524 15.0476 111.428 15.2381 111.381 15.4762L109.905 22.8095C109.857 22.9048 109.857 23 109.857 23.0476C109.857 23.3333 110.095 23.4762 110.571 23.4762H122.238C122.857 23.4762 123.286 24 123.19 24.619L122.809 26.7619Z" fill="white"/>
<path d="M151.238 27.5237H147.809C147.19 27.5237 146.762 26.9999 146.857 26.3808L149 15.4285C149 15.2856 149.048 15.1904 149.048 15.1427C149.048 14.9523 149 14.857 148.905 14.8094C148.809 14.7618 148.619 14.7618 148.381 14.7618H139.381L137.048 26.7142C136.952 27.1427 136.571 27.4761 136.095 27.4761H132.667C132.048 27.4761 131.619 26.9523 131.714 26.3332L135.809 5.23798C135.905 4.80941 136.286 4.47607 136.762 4.47607H140.19C140.809 4.47607 141.238 4.99988 141.143 5.61893L140.095 10.9523H149.381C151.19 10.9523 152.524 11.1904 153.333 11.6189C154.143 12.0475 154.524 12.9046 154.524 14.1427C154.524 14.6666 154.476 15.238 154.333 15.9046L152.238 26.7142C152.095 27.1904 151.714 27.5237 151.238 27.5237Z" fill="white"/>
<path d="M64.9999 41.4761H58.7142L58.0475 44.9047C57.9999 45.2381 57.6666 45.4761 57.3332 45.4761H55.4761C55.0475 45.4761 54.6666 45.0476 54.7618 44.619L57.2856 31.7619C57.3332 31.4285 57.6666 31.1904 57.9999 31.1904H66.9047C68.0475 31.1904 68.8571 31.3333 69.3333 31.619C69.8094 31.9047 70.0475 32.4285 70.0475 33.1904C70.0475 33.5238 69.9999 33.8571 69.9047 34.2857L69.0952 38.3809C68.8571 39.619 68.4285 40.4285 67.8571 40.8571C67.2856 41.2381 66.3332 41.4761 64.9999 41.4761ZM65.8094 38.5238L66.7142 34C66.7142 33.9523 66.7142 33.8571 66.7142 33.8571C66.7142 33.7619 66.6666 33.6666 66.619 33.6666C66.5713 33.619 66.4285 33.619 66.2856 33.619H60.2856L59.238 39H65.238C65.4285 39 65.5713 38.9523 65.619 38.9047C65.7142 38.8095 65.7618 38.6666 65.8094 38.5238Z" fill="white"/>
<path d="M84.7141 40.9047C84.6665 41.2381 84.3332 41.4762 83.9998 41.4762H76.0951C74.7141 41.4762 73.8094 41.2857 73.2856 40.8571C72.8094 40.4285 72.6665 39.619 72.9046 38.4285L73.7617 34.1428C73.9998 32.9047 74.3808 32.0952 74.9522 31.6666C75.476 31.2857 76.4284 31.0952 77.7141 31.0952H82.9522C84.3332 31.0952 85.2379 31.2857 85.7618 31.7143C86.2856 32.1428 86.4284 32.9047 86.1903 34.1428L85.6665 36.9047C85.6189 37.2381 85.2856 37.4762 84.9522 37.4762H76.2379L75.9998 38.7143C75.9522 38.8571 75.9522 39 76.0475 39.0476C76.0951 39.0952 76.2379 39.1428 76.4284 39.1428H84.1903C84.6189 39.1428 84.9999 39.5714 84.9046 40L84.7141 40.9047ZM82.857 35.4285L83.1427 33.7619C83.1903 33.5714 83.1903 33.4762 83.0951 33.4285C83.0475 33.3809 82.9046 33.3333 82.7141 33.3333H77.476C77.2856 33.3333 77.1427 33.3809 77.0475 33.4285C76.9522 33.4762 76.9046 33.5714 76.857 33.7619L76.5713 35.4285H82.857Z" fill="white"/>
<path d="M98.6667 41.5714H92.381C91.0476 41.5714 90.0952 41.3809 89.6191 40.9524C89.1429 40.5238 89 39.7143 89.2381 38.5238L90.0952 34.1905C90.3333 32.9524 90.7143 32.1428 91.2857 31.7143C91.8095 31.3333 92.7143 31.0952 94.0476 31.0952H100.333C101.667 31.0952 102.619 31.2857 103.095 31.7143C103.571 32.1428 103.714 32.9524 103.476 34.1428L102.619 38.4762C102.381 39.7143 102 40.5238 101.429 40.9524C100.857 41.3809 99.9524 41.5714 98.6667 41.5714ZM99.2381 38.619L100.143 33.8571C100.19 33.6666 100.143 33.5714 100.095 33.5238C100.048 33.4762 99.9048 33.4285 99.7143 33.4285H94C93.8095 33.4285 93.6667 33.4762 93.5714 33.5238C93.4762 33.5714 93.4286 33.6666 93.4286 33.8571L92.5238 38.619C92.4762 38.7619 92.4762 38.9047 92.5714 38.9524C92.6191 39 92.7619 39.0476 92.9524 39.0476H98.6667C98.8572 39.0476 99 39 99.0476 38.9524C99.1429 38.9047 99.1905 38.7619 99.2381 38.619Z" fill="white"/>
<path d="M115.571 41.4761H109.286L108.619 44.9047C108.571 45.2381 108.238 45.4761 107.905 45.4761H106.048C105.619 45.4761 105.238 45.0476 105.333 44.619L107.857 31.7619C107.905 31.4285 108.238 31.1904 108.571 31.1904H117.476C118.619 31.1904 119.429 31.3333 119.905 31.619C120.381 31.9047 120.619 32.4285 120.619 33.1904C120.619 33.5238 120.571 33.8571 120.476 34.2857L119.667 38.3809C119.429 39.619 119 40.4285 118.429 40.8571C117.857 41.2381 116.905 41.4761 115.571 41.4761ZM116.381 38.5238L117.286 34C117.286 33.9523 117.286 33.8571 117.286 33.8571C117.286 33.7619 117.238 33.6666 117.191 33.6666C117.143 33.619 117 33.619 116.857 33.619H110.857L109.81 39H115.81C116 39 116.143 38.9523 116.191 38.9047C116.286 38.8095 116.381 38.6666 116.381 38.5238Z" fill="white"/>
<path d="M129.809 40.9047C129.762 41.238 129.428 41.4761 129.095 41.4761H126.714C125.571 41.4761 124.714 41.3333 124.286 41.0952C123.809 40.8571 123.571 40.3809 123.571 39.619C123.571 39.238 123.619 38.8571 123.714 38.3809L125.762 27.7619C125.809 27.4285 126.143 27.1904 126.476 27.1904H128.333C128.762 27.1904 129.143 27.619 129.047 28.0476L127 38.5238C127 38.5714 126.952 38.619 126.952 38.6666C126.952 38.8571 127.095 38.9523 127.428 38.9523H129.286C129.714 38.9523 130.095 39.3809 130 39.8095L129.809 40.9047Z" fill="white"/>
<path d="M144.905 40.9047C144.857 41.2381 144.524 41.4762 144.191 41.4762H136.286C134.905 41.4762 134 41.2857 133.476 40.8571C133 40.4285 132.857 39.619 133.095 38.4285L133.952 34.1428C134.191 32.9047 134.571 32.0952 135.143 31.6666C135.667 31.2857 136.619 31.0952 137.905 31.0952H143.143C144.524 31.0952 145.429 31.2857 145.952 31.7143C146.476 32.1428 146.619 32.9047 146.381 34.1428L145.857 36.9047C145.81 37.2381 145.476 37.4762 145.143 37.4762H136.429L136.191 38.7143C136.143 38.8571 136.143 39 136.238 39.0476C136.286 39.0952 136.429 39.1428 136.619 39.1428H144.381C144.81 39.1428 145.191 39.5714 145.095 40L144.905 40.9047ZM143.048 35.4285L143.333 33.7619C143.381 33.5714 143.381 33.4762 143.286 33.4285C143.238 33.3809 143.095 33.3333 142.905 33.3333H137.667C137.476 33.3333 137.333 33.3809 137.238 33.4285C137.143 33.4762 137.095 33.5714 137.048 33.7619L136.762 35.4285H143.048Z" fill="white"/>
</g>
<defs>
<clipPath id="clip0_104_834">
<rect width="154.762" height="50" fill="white"/>
</clipPath>
</defs>
</svg>
