<svg width="70" height="70" viewBox="0 0 70 70" fill="none" xmlns="http://www.w3.org/2000/svg">
<path d="M42.8667 26.3C42.7333 26.4333 42.6 26.5667 42.4333 26.7C42.1 27 41.6667 27 41.4 26.7C41.1 26.4 41.1 25.9667 41.4 25.6667C41.7667 25.2667 42.1333 24.9 42.5333 24.5333C43.6333 23.4333 44.7333 22.3333 45.8333 21.2333C46.5 20.5667 46.4667 19.4667 45.8333 18.7667C45.1667 18.0667 44.1 17.9667 43.3333 18.5667C42.7333 19.0333 42.3 19.6667 41.7333 20.1667C41.1667 20.6667 40.6667 21.2333 40.1334 21.7667C39.1 22.8 38.0667 23.8333 37 24.9C36.1 25.8 35.2334 26.6667 34.3334 27.5667C34.0667 27.8333 33.5667 27.8333 33.3334 27.6C33.0334 27.3 33 26.8667 33.3 26.5667C33.3667 26.5 33.4334 26.4333 33.4667 26.3667C35.2334 24.6 37 22.8333 38.8 21.0667C38.9667 20.9 39.1 20.7333 39.2 20.5333C39.6 19.7 39.3667 18.7333 38.6667 18.2667C37.8334 17.7 36.9333 17.7667 36.2334 18.4667C35.9334 18.7667 35.6334 19.0667 35.3 19.3667C35.2 19.4667 35.1 19.5333 34.9667 19.5333C34.6334 19.6 34.3334 19.4333 34.1667 19.1333C34 18.8333 34.1 18.5 34.3667 18.2333C35.7334 16.8667 37.1 15.4667 38.5 14.1C39.2333 13.3667 39.2333 12.2333 38.5 11.5C37.8334 10.8 36.6334 10.8 35.9334 11.5C35.1 12.3 34.3 13.1333 33.4667 13.9667C32 15.4333 30.5 16.9333 29.0334 18.4C28.6667 18.7667 28.2 18.8 27.8667 18.4667C27.5667 18.1333 27.6 17.7 27.9667 17.3333C28.6 16.7 29.2667 16.0667 29.8667 15.4333C30.5667 14.6667 30.5334 13.5333 29.7667 12.8333C29.0667 12.1667 27.9334 12.2 27.2 12.9C25.7334 14.3667 24.2667 15.8333 22.8 17.3C22.0334 18.0667 22.0334 19.1333 22.7667 19.9333C23.4334 20.6333 24.6 20.6667 25.3667 19.9667C25.5334 19.8 25.7 19.6333 25.8667 19.5C26.2667 19.1667 26.8334 19.3 27.0334 19.8C27.2 20.2 27 20.5 26.7334 20.7333C25.3334 22.1333 23.9334 23.5 22.5667 24.9C21.8334 25.6333 21.7667 26.7667 22.4334 27.4667C23.2 28.2667 24.3 28.3 25.0667 27.5667C25.7667 26.8667 26.4667 26.1667 27.1667 25.4667C28.8334 23.8 30.5334 22.1 32.2 20.4333C32.5334 20.1 33 20.1 33.2667 20.3667C33.5667 20.6667 33.5667 21.1333 33.2334 21.4667C31.8 22.9 30.3334 24.3333 28.9 25.8C27.7 27 26.5 28.2 25.3 29.4C24.6 30.1333 24.5667 31.1667 25.2334 31.9333C25.8334 32.6333 26.9334 32.7667 27.6667 32.2C28 31.9667 28.2667 31.6333 28.5667 31.3333C29.4334 30.4667 30.3 29.5667 31.2 28.7C31.6334 28.2667 32.2667 28.4 32.4667 28.9333C32.6 29.2667 32.4667 29.5333 32.2334 29.7667C31.4 30.6 30.5667 31.4333 29.7667 32.2667C29.0667 33 29.1 34.1 29.8334 34.8333C30.5 35.5 31.6334 35.5333 32.3334 34.8667C32.6334 34.5667 32.9667 34.2667 33.2667 33.9667C35.3 31.9333 37.3334 29.9 39.3667 27.8667C39.6667 27.5667 40.1 27.5667 40.4 27.8C40.7 28.0667 40.7333 28.4667 40.4667 28.8333C40.3333 29 40.2 29.1333 40.0333 29.2667C39.4667 29.8333 39.3 30.5667 39.6 31.3C39.8667 32 40.5333 32.4333 41.2667 32.4333C41.7 32.4333 42.1333 32.3333 42.4333 32.0333C43.5 31 44.5333 29.9667 45.5667 28.9C46.2667 28.1667 46.2 27.0667 45.5 26.3667C44.7333 25.6 43.6 25.6 42.8667 26.3Z" fill="white"/>
<path d="M41.5333 17.5C42.5667 17.5 43.4 16.7 43.4 15.6333C43.4 14.6667 42.5667 13.8333 41.6 13.8C40.5667 13.8 39.7667 14.6333 39.7667 15.6333C39.7334 16.6667 40.5667 17.5 41.5333 17.5Z" fill="white"/>
<path d="M32.2333 12.2C33.2667 12.2 34.1 11.4 34.1 10.3333C34.1 9.36667 33.2667 8.53333 32.3 8.5C31.2667 8.5 30.4667 9.33333 30.4667 10.3333C30.4667 11.4 31.2667 12.2 32.2333 12.2Z" fill="white"/>
<path d="M47.6667 22.5C46.6333 22.5 45.8333 23.3333 45.8333 24.3333C45.8333 25.3333 46.6333 26.1667 47.6 26.1667C48.6333 26.1667 49.4667 25.3667 49.4667 24.3C49.4667 23.3333 48.6333 22.5 47.6667 22.5Z" fill="white"/>
<path d="M14.4667 51C14.4334 51.2666 14.2 51.4333 13.9334 51.4333H11.4667C10.4334 51.4333 9.70002 51.3 9.26668 51.0666C8.83335 50.8 8.63335 50.3333 8.63335 49.6333C8.63335 49.3 8.66668 48.9333 8.76668 48.5L9.60002 44.2333H8.83335C8.50002 44.2333 8.23335 43.9333 8.30002 43.6L8.53335 42.3333C8.53335 42.2666 8.56668 42.1666 8.63335 42.1L10.3 39.9C10.4 39.7666 10.5667 39.7 10.7334 39.7H12.7334C13.0667 39.7 13.3334 40 13.2667 40.3333L12.9 42.2H15.1667C15.5 42.2 15.7667 42.5 15.7 42.8333L15.5 43.8C15.4667 44.0666 15.2334 44.2333 14.9667 44.2333H12.5L11.6 48.7666C11.6 48.8333 11.6 48.8666 11.6 48.9C11.6 49.0666 11.7334 49.1333 12.0334 49.1333H14.2C14.5334 49.1333 14.8 49.4333 14.7334 49.7666L14.4667 51Z" fill="white"/>
<path d="M29.6334 51C29.6 51.2666 29.3667 51.4333 29.1 51.4333H21.9334C20.7 51.4333 19.8667 51.2333 19.4 50.8666C18.9667 50.5 18.8334 49.7666 19.0334 48.7L19.8 44.8333C20.0334 43.7 20.3667 42.9666 20.8667 42.6333C21.3667 42.2666 22.2 42.1 23.3667 42.1H28.0667C29.3 42.1 30.1334 42.2666 30.6 42.6333C31.0667 43 31.2 43.7333 30.9667 44.8L30.4667 47.3666C30.4334 47.6333 30.2 47.8 29.9334 47.8H22L21.7667 48.9333C21.7334 49.0666 21.7334 49.1666 21.8 49.2333C21.8667 49.2666 21.9667 49.3 22.1667 49.3H29.3334C29.6667 49.3 29.9334 49.6 29.8667 49.9333L29.6334 51ZM27.9667 46L28.2334 44.5C28.2667 44.3333 28.2667 44.2333 28.2 44.2C28.1334 44.1666 28.0334 44.1333 27.8667 44.1333H23.1667C23 44.1333 22.8667 44.1666 22.8 44.2C22.7334 44.2333 22.6667 44.3333 22.6334 44.5L22.3667 46H27.9667Z" fill="white"/>
<path d="M45.1667 51C45.1334 51.2667 44.9 51.4333 44.6334 51.4333H37.8334C36.8 51.4333 36.0667 51.3 35.6 51.0667C35.1334 50.8333 34.9 50.3333 34.9 49.6333C34.9 49.3667 34.9334 49.0333 35 48.6667L35.7334 44.9667C35.9667 43.8667 36.3334 43.1333 36.8334 42.7667C37.3334 42.4 38.2 42.2 39.3667 42.2H46C46.3334 42.2 46.6 42.5 46.5334 42.8333L46.3334 43.9C46.3 44.1667 46.0667 44.3333 45.8 44.3333H39.3C39.1334 44.3333 39 44.3667 38.9334 44.4C38.8667 44.4333 38.8 44.5333 38.8 44.7L38 48.8C37.9667 48.8667 37.9667 48.9 37.9667 48.9333C37.9667 49.1 38.1 49.1667 38.3667 49.1667H44.9C45.2334 49.1667 45.5 49.4667 45.4334 49.8L45.1667 51Z" fill="white"/>
<path d="M61.0667 51.4333H59.1667C58.8334 51.4333 58.5667 51.1333 58.6334 50.8L59.8334 44.6667C59.8334 44.6 59.8334 44.5333 59.8334 44.5333C59.8334 44.4333 59.8 44.3667 59.7667 44.3333C59.7 44.3 59.6 44.3 59.4667 44.3H54.4334L53.1334 51C53.1 51.2667 52.8667 51.4333 52.6 51.4333H50.7C50.3667 51.4333 50.1 51.1333 50.1667 50.8L52.4667 39C52.5 38.7333 52.7334 38.5667 53 38.5667H54.9C55.2334 38.5667 55.5 38.8667 55.4334 39.2L54.8667 42.2H60C61.0334 42.2 61.7667 42.3333 62.2 42.5667C62.6334 42.8 62.8667 43.3 62.8667 44C62.8667 44.2667 62.8334 44.6 62.7667 44.9666L61.6 51C61.5334 51.2333 61.3334 51.4333 61.0667 51.4333Z" fill="white"/>
<path d="M12.8333 59.2H9.33335L8.96668 61.1333C8.93335 61.3333 8.76668 61.4666 8.56668 61.4666H7.53335C7.26668 61.4666 7.10001 61.2333 7.13335 61L8.53335 53.8C8.56668 53.6 8.73335 53.4666 8.93335 53.4666H13.9C14.5333 53.4666 15 53.5333 15.2667 53.7C15.5333 53.8666 15.6667 54.1333 15.6667 54.5666C15.6667 54.7333 15.6333 54.9333 15.6 55.1666L15.1667 57.4666C15.0333 58.1666 14.8 58.6 14.4667 58.8333C14.1 59.1 13.5667 59.2 12.8333 59.2ZM13.2667 57.5666L13.7667 55.0333C13.7667 55 13.7667 54.9666 13.7667 54.9333C13.7667 54.8666 13.7333 54.8333 13.7 54.8333C13.6667 54.8333 13.6 54.8 13.5 54.8H10.2L9.60001 57.8H12.9667C13.0667 57.8 13.1333 57.8 13.2 57.7666C13.2333 57.7 13.2667 57.6666 13.2667 57.5666Z" fill="white"/>
<path d="M23.8667 58.9C23.8334 59.1 23.6667 59.2333 23.4667 59.2333H19.0667C18.3 59.2333 17.7667 59.1333 17.5 58.9C17.2334 58.6666 17.1334 58.2333 17.2667 57.5333L17.7334 55.1333C17.8667 54.4333 18.1 53.9666 18.4 53.7666C18.7 53.5333 19.2334 53.4333 19.9667 53.4333H22.9C23.6667 53.4333 24.2 53.5333 24.4667 53.7666C24.7667 54 24.8334 54.4333 24.7 55.1L24.4 56.6333C24.3667 56.8333 24.2 56.9666 24 56.9666H19.1334L19 57.6666C18.9667 57.7666 19 57.8333 19.0334 57.8333C19.0667 57.8666 19.1334 57.8666 19.2667 57.8666H23.6334C23.9 57.8666 24.0667 58.1 24.0334 58.3333L23.8667 58.9ZM22.8334 55.8333L23 54.9C23.0334 54.8 23.0334 54.7333 22.9667 54.7C22.9334 54.6666 22.8667 54.6666 22.7667 54.6666H19.8334C19.7334 54.6666 19.6667 54.6666 19.6 54.7C19.5667 54.7333 19.5334 54.8 19.5 54.9L19.3334 55.8333H22.8334Z" fill="white"/>
<path d="M31.6667 59.2666H28.1333C27.3667 59.2666 26.8667 59.1666 26.6 58.9333C26.3333 58.7 26.2667 58.2333 26.4 57.5666L26.8667 55.1333C27 54.4333 27.2333 53.9666 27.5333 53.7666C27.8333 53.5333 28.3333 53.4333 29.0667 53.4333H32.6C33.3667 53.4333 33.8667 53.5666 34.1333 53.7666C34.4 53.9666 34.4667 54.4666 34.3667 55.1333L33.9 57.5666C33.7667 58.2666 33.5333 58.7333 33.2333 58.9333C32.9 59.1666 32.3667 59.2666 31.6667 59.2666ZM32 57.6333L32.5 54.9666C32.5 54.8666 32.5 54.8 32.4667 54.7666C32.4333 54.7333 32.3667 54.7333 32.2667 54.7333H29.0667C28.9667 54.7333 28.8667 54.7333 28.8333 54.7666C28.8 54.8 28.7667 54.8666 28.7333 54.9666L28.2333 57.6333C28.2 57.7333 28.2333 57.8 28.2667 57.8333C28.3 57.8666 28.3667 57.8666 28.5 57.8666H31.6667C31.7667 57.8666 31.8333 57.8666 31.9 57.8333C31.9333 57.7666 31.9667 57.7 32 57.6333Z" fill="white"/>
<path d="M41.1333 59.2H37.6333L37.2667 61.1333C37.2333 61.3333 37.0667 61.4666 36.8667 61.4666H35.8333C35.5667 61.4666 35.4 61.2333 35.4333 61L36.8333 53.8C36.8667 53.6 37.0333 53.4666 37.2333 53.4666H42.2C42.8333 53.4666 43.3 53.5333 43.5667 53.7C43.8333 53.8666 43.9667 54.1333 43.9667 54.5666C43.9667 54.7333 43.9333 54.9333 43.9 55.1666L43.4667 57.4666C43.3333 58.1666 43.1 58.6 42.7667 58.8333C42.4 59.1 41.8667 59.2 41.1333 59.2ZM41.5667 57.5666L42.0667 55.0333C42.0667 55 42.0667 54.9666 42.0667 54.9333C42.0667 54.8666 42.0333 54.8333 42 54.8333C41.9667 54.8333 41.9 54.8 41.8 54.8H38.4333L37.8333 57.8H41.2C41.3 57.8 41.3667 57.8 41.4333 57.7666C41.5333 57.7 41.5667 57.6666 41.5667 57.5666Z" fill="white"/>
<path d="M49.0667 58.9C49.0333 59.1 48.8667 59.2333 48.6667 59.2333H47.3333C46.7 59.2333 46.2333 59.1666 45.9667 59.0333C45.7 58.9 45.5667 58.6333 45.5667 58.2C45.5667 58 45.6 57.7666 45.6333 57.5L46.8 51.5666C46.8333 51.3666 47 51.2333 47.2 51.2333H48.2333C48.5 51.2333 48.6667 51.4666 48.6333 51.7L47.5 57.5666C47.5 57.6 47.4667 57.6333 47.4667 57.6333C47.4667 57.7333 47.5667 57.7666 47.7333 57.7666H48.7667C49.0333 57.7666 49.2 58 49.1667 58.2333L49.0667 58.9Z" fill="white"/>
<path d="M57.5334 58.9C57.5 59.1 57.3334 59.2333 57.1334 59.2333H52.7334C51.9667 59.2333 51.4334 59.1333 51.1667 58.9C50.9 58.6666 50.8 58.2333 50.9334 57.5333L51.4 55.1333C51.5334 54.4333 51.7667 53.9666 52.0667 53.7666C52.3667 53.5333 52.9 53.4333 53.6334 53.4333H56.5667C57.3334 53.4333 57.8667 53.5333 58.1334 53.7666C58.4334 54 58.5 54.4333 58.3667 55.1L58.0667 56.6333C58.0334 56.8333 57.8667 56.9666 57.6667 56.9666H52.8L52.6667 57.6666C52.6334 57.7666 52.6667 57.8333 52.7 57.8333C52.7334 57.8666 52.8 57.8666 52.9334 57.8666H57.3C57.5667 57.8666 57.7334 58.1 57.7 58.3333L57.5334 58.9ZM56.4667 55.8333L56.6334 54.9C56.6667 54.8 56.6667 54.7333 56.6 54.7C56.5667 54.6666 56.5 54.6666 56.4 54.6666H53.4667C53.3667 54.6666 53.3 54.6666 53.2334 54.7C53.2 54.7333 53.1667 54.8 53.1334 54.9L52.9667 55.8333H56.4667Z" fill="white"/>
</svg>
