<svg width="233" height="75" viewBox="0 0 233 75" fill="none" xmlns="http://www.w3.org/2000/svg">
<path d="M56.7143 49.2856C56.3571 49.6427 55.9286 49.9999 55.5714 50.357C54.6429 51.2142 53.5714 51.2142 52.7857 50.357C52 49.5713 52 48.4285 52.7857 47.5713C53.7857 46.5713 54.7857 45.5713 55.7857 44.4999C58.7143 41.5713 61.7143 38.6428 64.5714 35.6428C66.2857 33.857 66.2857 30.857 64.6429 29.0713C62.8571 27.1428 60 26.9285 57.9286 28.5713C56.3571 29.857 55.1429 31.4999 53.6429 32.857C52.0714 34.1427 50.7143 35.7142 49.2857 37.1427C46.5 39.9285 43.7143 42.7142 40.9286 45.4999C38.5714 47.857 36.1429 50.2856 33.7857 52.6427C33.0714 53.357 31.7857 53.357 31.0714 52.7142C30.2143 51.9285 30.2143 50.7856 30.9286 49.9285C31.0714 49.7856 31.2143 49.5713 31.4286 49.4285C36.2143 44.7142 40.9286 39.9285 45.7143 35.1428C46.1429 34.7142 46.5 34.2142 46.7857 33.7142C47.8571 31.4999 47.2143 28.9285 45.4286 27.5713C43.2143 25.9999 40.7857 26.2142 38.8571 28.1428C38 28.9285 37.2143 29.7856 36.3571 30.5713C36.1429 30.7856 35.7857 30.9999 35.5 31.0713C34.5714 31.2856 33.7857 30.857 33.3571 29.9999C32.9286 29.1428 33.1429 28.2856 33.9286 27.5713C37.6429 23.857 41.2857 20.2142 45 16.4999C46.9286 14.5713 46.9286 11.4999 45 9.57132C43.2143 7.71418 40 7.71418 38.1429 9.57132C35.9286 11.7856 33.7143 13.9285 31.5 16.1428C27.5 20.1428 23.5714 24.0713 19.5714 28.0713C18.5714 29.0713 17.2857 29.1428 16.5 28.2856C15.7143 27.4285 15.7857 26.2856 16.7857 25.2856C18.5 23.5713 20.2143 21.9285 21.9286 20.1428C23.8571 18.1428 23.7143 15.0713 21.7143 13.1428C19.7857 11.357 16.7857 11.4285 14.8571 13.357C10.9286 17.2856 7 21.2142 3.07143 25.1428C0.785716 27.1428 0.714288 29.9999 2.71429 32.1427C4.5 34.0713 7.64286 34.0713 9.64286 32.2142C10.0714 31.7856 10.5 31.357 10.9286 30.9285C12 29.9999 13.5 30.4285 14 31.7142C14.4286 32.7856 13.8571 33.5713 13.1429 34.2856C9.5 37.9285 5.71429 41.6427 2 45.4285C2.20537e-06 47.4285 -0.142855 50.4285 1.64286 52.357C3.64286 54.4999 6.64286 54.6427 8.71429 52.6427C10.6429 50.7856 12.5 48.9285 14.3571 47.0713C18.8571 42.5713 23.3571 38.0713 27.8571 33.4999C28.7143 32.6428 30 32.5713 30.7857 33.357C31.5714 34.1428 31.5714 35.4285 30.6429 36.2856C26.7857 40.1427 22.9286 43.9999 19 47.857C15.7857 51.0713 12.5714 54.2856 9.35714 57.4999C7.42857 59.4285 7.35714 62.2142 9.14286 64.2856C10.7143 66.1427 13.6429 66.4999 15.7143 64.9285C16.5714 64.2856 17.3571 63.4285 18.1429 62.6427C20.5 60.2856 22.8571 57.9285 25.2143 55.5713C26.3571 54.4285 28.0714 54.7142 28.5714 56.2142C28.9286 57.1427 28.5714 57.7856 27.9286 58.4285C25.7143 60.6428 23.5 62.857 21.2857 65.1427C19.3571 67.0713 19.5 70.0713 21.5 72.0713C23.2857 73.857 26.2857 73.9285 28.2143 72.1427C29.0714 71.357 29.9286 70.4999 30.7143 69.7142C36.1429 64.2856 41.5714 58.7856 47.0714 53.357C47.8571 52.5713 49.0714 52.5713 49.8571 53.2142C50.6429 53.9285 50.7143 55.0713 50 55.9285C49.6429 56.357 49.2143 56.7142 48.8571 57.1428C47.3571 58.7142 46.9286 60.6427 47.7143 62.5713C48.5 64.4285 50.2143 65.5713 52.2143 65.5713C53.3571 65.5713 54.5 65.2856 55.3571 64.4999C58.2143 61.7142 61 58.9285 63.7143 56.0713C65.5714 54.0713 65.4286 51.1427 63.5 49.2856C61.6429 47.357 58.6429 47.4285 56.7143 49.2856Z" fill="black"/>
<path d="M53.0714 25.6428C55.8571 25.6428 58.0714 23.4285 58.0714 20.6428C58.0714 17.9999 55.8571 15.7856 53.2143 15.7856C50.5 15.7856 48.2857 17.9999 48.2857 20.7142C48.2857 23.3571 50.4286 25.5714 53.0714 25.6428Z" fill="black"/>
<path d="M28.1429 11.5C30.9286 11.5 33.1429 9.28568 33.1429 6.49997C33.1429 3.85711 30.9286 1.64282 28.2857 1.64282C25.5714 1.64282 23.3571 3.85711 23.3571 6.57139C23.4286 9.28568 25.5714 11.5 28.1429 11.5Z" fill="black"/>
<path d="M69.5 39.0713C66.7857 39.0713 64.5714 41.2856 64.5714 43.9999C64.5714 46.6427 66.7143 48.857 69.3571 48.9284C72.1428 48.9284 74.3571 46.7141 74.3571 43.9284C74.3571 41.2856 72.1428 39.0713 69.5 39.0713Z" fill="black"/>
<path d="M101.929 40.1429C101.786 40.7858 101.214 41.2858 100.5 41.2858H93.8571C91.0714 41.2858 89.1429 40.9286 87.9286 40.2858C86.7857 39.6429 86.2143 38.3572 86.2143 36.4286C86.2143 35.5715 86.3571 34.5715 86.5714 33.3572L88.7857 21.9286H86.7143C85.7857 21.9286 85.1429 21.1429 85.2857 20.2144L85.9286 16.7858C86 16.5715 86.0714 16.3572 86.2143 16.2144L90.6429 10.2858C90.9286 9.92864 91.3571 9.71436 91.7857 9.71436H97.1429C98.0714 9.71436 98.7143 10.5001 98.5714 11.4286L97.5714 16.4286H103.643C104.571 16.4286 105.214 17.2144 105.071 18.1429L104.571 20.7144C104.429 21.3572 103.857 21.8572 103.143 21.8572H96.5L94.1429 34.0001C94.1429 34.1429 94.1429 34.2858 94.1429 34.4286C94.1429 34.8572 94.5 35.0715 95.2857 35.0715H101.071C102 35.0715 102.643 35.8572 102.5 36.7858L101.929 40.1429Z" fill="#0D0F0F"/>
<path d="M142.571 40.1429C142.429 40.7858 141.857 41.2858 141.143 41.2858H121.786C118.5 41.2858 116.214 40.7858 115 39.7858C113.786 38.7858 113.5 36.8572 114 33.9286L116 23.5715C116.571 20.5715 117.571 18.5715 118.857 17.6429C120.143 16.7144 122.429 16.2144 125.571 16.2144H138.214C141.5 16.2144 143.786 16.7144 145 17.6429C146.214 18.6429 146.571 20.5715 146 23.4286L144.714 30.3572C144.571 31.0001 144 31.5001 143.286 31.5001H122.143L121.571 34.5001C121.5 34.9286 121.5 35.1429 121.643 35.2858C121.786 35.4286 122.143 35.5001 122.571 35.5001H141.714C142.643 35.5001 143.286 36.2858 143.143 37.2144L142.571 40.1429ZM138.143 26.7144L138.857 22.7144C138.929 22.2858 138.929 22.0001 138.786 21.9286C138.643 21.7858 138.357 21.7858 137.857 21.7858H125.214C124.786 21.7858 124.429 21.8572 124.214 21.9286C124 22.0715 123.857 22.2858 123.786 22.7144L123.071 26.7144H138.143Z" fill="#0D0F0F"/>
<path d="M184.214 40.1429C184.071 40.7857 183.5 41.2857 182.786 41.2857H164.5C161.714 41.2857 159.714 40.9286 158.5 40.2857C157.286 39.6429 156.643 38.3571 156.643 36.4286C156.643 35.7143 156.714 34.8571 156.929 33.8571L158.857 23.9286C159.429 20.9286 160.429 19 161.786 18C163.143 17 165.429 16.5 168.571 16.5H186.429C187.357 16.5 188 17.2857 187.857 18.2143L187.286 21.0714C187.143 21.7143 186.571 22.2143 185.857 22.2143H168.5C168.071 22.2143 167.714 22.2857 167.5 22.4286C167.286 22.5714 167.143 22.8571 167.071 23.2143L164.857 34.2143C164.786 34.3571 164.786 34.5 164.786 34.5714C164.786 35 165.143 35.2143 165.857 35.2143H183.357C184.286 35.2143 184.929 36 184.786 36.9286L184.214 40.1429Z" fill="#0D0F0F"/>
<path d="M226.857 41.2858H221.714C220.786 41.2858 220.143 40.5001 220.286 39.5715L223.5 23.1429C223.5 22.9286 223.571 22.7858 223.571 22.7144C223.571 22.4286 223.5 22.2858 223.357 22.2144C223.214 22.1429 222.929 22.1429 222.571 22.1429H209.071L205.571 40.0715C205.429 40.7144 204.857 41.2144 204.143 41.2144H199C198.071 41.2144 197.429 40.4286 197.571 39.5001L203.714 7.85721C203.857 7.21436 204.429 6.71436 205.143 6.71436H210.286C211.214 6.71436 211.857 7.50007 211.714 8.42864L210.143 16.4286H224.071C226.786 16.4286 228.786 16.7858 230 17.4286C231.214 18.0715 231.786 19.3572 231.786 21.2144C231.786 22.0001 231.714 22.8572 231.5 23.8572L228.357 40.0715C228.143 40.7858 227.571 41.2858 226.857 41.2858Z" fill="#0D0F0F"/>
<path d="M97.5 62.2145H88.0714L87.0714 67.3573C87 67.8573 86.5 68.2145 86 68.2145H83.2143C82.5714 68.2145 82 67.5716 82.1428 66.9287L85.9286 47.643C86 47.143 86.5 46.7859 87 46.7859H100.357C102.071 46.7859 103.286 47.0002 104 47.4287C104.714 47.8573 105.071 48.643 105.071 49.7859C105.071 50.2859 105 50.7859 104.857 51.4287L103.643 57.5716C103.286 59.4287 102.643 60.643 101.786 61.2859C100.929 61.8573 99.5 62.2145 97.5 62.2145ZM98.7143 57.7859L100.071 51.0002C100.071 50.9287 100.071 50.7859 100.071 50.7859C100.071 50.643 100 50.5002 99.9286 50.5002C99.8571 50.4287 99.6428 50.4287 99.4286 50.4287H90.4286L88.8571 58.5002H97.8571C98.1428 58.5002 98.3571 58.4287 98.4286 58.3573C98.5714 58.2145 98.6428 58.0002 98.7143 57.7859Z" fill="#0D0F0F"/>
<path d="M127.071 61.3574C127 61.8574 126.5 62.2145 126 62.2145H114.143C112.071 62.2145 110.714 61.9288 109.929 61.2859C109.214 60.6431 109 59.4288 109.357 57.6431L110.643 51.2145C111 49.3573 111.571 48.1431 112.429 47.5002C113.214 46.9288 114.643 46.6431 116.571 46.6431H124.429C126.5 46.6431 127.857 46.9288 128.643 47.5716C129.429 48.2145 129.643 49.3573 129.286 51.2145L128.5 55.3574C128.429 55.8574 127.929 56.2145 127.429 56.2145H114.357L114 58.0716C113.929 58.2859 113.929 58.5002 114.071 58.5716C114.143 58.6431 114.357 58.7145 114.643 58.7145H126.286C126.929 58.7145 127.5 59.3574 127.357 60.0002L127.071 61.3574ZM124.286 53.1431L124.714 50.6431C124.786 50.3574 124.786 50.2145 124.643 50.1431C124.571 50.0716 124.357 50.0002 124.071 50.0002H116.214C115.929 50.0002 115.714 50.0716 115.571 50.1431C115.429 50.2145 115.357 50.3574 115.286 50.6431L114.857 53.1431H124.286Z" fill="#0D0F0F"/>
<path d="M148 62.3573H138.571C136.571 62.3573 135.143 62.0716 134.429 61.4288C133.714 60.7859 133.5 59.5716 133.857 57.7859L135.143 51.2859C135.5 49.4288 136.071 48.2145 136.929 47.5716C137.714 47.0002 139.071 46.6431 141.071 46.6431H150.5C152.5 46.6431 153.929 46.9288 154.643 47.5716C155.357 48.2145 155.571 49.4288 155.214 51.2145L153.929 57.7145C153.571 59.5716 153 60.7859 152.143 61.4288C151.286 62.0716 149.929 62.3573 148 62.3573ZM148.857 57.9288L150.214 50.7859C150.286 50.5002 150.214 50.3574 150.143 50.2859C150.071 50.2145 149.857 50.1431 149.571 50.1431H141C140.714 50.1431 140.5 50.2145 140.357 50.2859C140.214 50.3574 140.143 50.5002 140.143 50.7859L138.786 57.9288C138.714 58.1431 138.714 58.3574 138.857 58.4288C138.929 58.5002 139.143 58.5716 139.429 58.5716H148C148.286 58.5716 148.5 58.5002 148.571 58.4288C148.714 58.3574 148.786 58.1431 148.857 57.9288Z" fill="#0D0F0F"/>
<path d="M173.357 62.2145H163.929L162.929 67.3573C162.857 67.8573 162.357 68.2145 161.857 68.2145H159.071C158.429 68.2145 157.857 67.5716 158 66.9287L161.786 47.643C161.857 47.143 162.357 46.7859 162.857 46.7859H176.214C177.929 46.7859 179.143 47.0002 179.857 47.4287C180.571 47.8573 180.929 48.643 180.929 49.7859C180.929 50.2859 180.857 50.7859 180.714 51.4287L179.5 57.5716C179.143 59.4287 178.5 60.643 177.643 61.2859C176.786 61.8573 175.357 62.2145 173.357 62.2145ZM174.571 57.7859L175.929 51.0002C175.929 50.9287 175.929 50.7859 175.929 50.7859C175.929 50.643 175.857 50.5002 175.786 50.5002C175.714 50.4287 175.5 50.4287 175.286 50.4287H166.286L164.714 58.5002H173.714C174 58.5002 174.214 58.4287 174.286 58.3573C174.429 58.2145 174.571 58.0002 174.571 57.7859Z" fill="#0D0F0F"/>
<path d="M194.714 61.3573C194.643 61.8573 194.143 62.2145 193.643 62.2145H190.071C188.357 62.2145 187.071 62.0002 186.429 61.643C185.714 61.2859 185.357 60.5716 185.357 59.4287C185.357 58.8573 185.429 58.2859 185.571 57.5716L188.643 41.643C188.714 41.143 189.214 40.7859 189.714 40.7859H192.5C193.143 40.7859 193.714 41.4287 193.571 42.0716L190.5 57.7859C190.5 57.8573 190.429 57.9287 190.429 58.0002C190.429 58.2859 190.643 58.4288 191.143 58.4288H193.929C194.571 58.4288 195.143 59.0716 195 59.7145L194.714 61.3573Z" fill="#0D0F0F"/>
<path d="M217.357 61.3574C217.286 61.8574 216.786 62.2145 216.286 62.2145H204.429C202.357 62.2145 201 61.9288 200.214 61.2859C199.5 60.6431 199.286 59.4288 199.643 57.6431L200.929 51.2145C201.286 49.3573 201.857 48.1431 202.714 47.5002C203.5 46.9288 204.929 46.6431 206.857 46.6431H214.714C216.786 46.6431 218.143 46.9288 218.929 47.5716C219.714 48.2145 219.929 49.3573 219.571 51.2145L218.786 55.3574C218.714 55.8574 218.214 56.2145 217.714 56.2145H204.643L204.286 58.0716C204.214 58.2859 204.214 58.5002 204.357 58.5716C204.429 58.6431 204.643 58.7145 204.929 58.7145H216.571C217.214 58.7145 217.786 59.3574 217.643 60.0002L217.357 61.3574ZM214.571 53.1431L215 50.6431C215.071 50.3574 215.071 50.2145 214.929 50.1431C214.857 50.0716 214.643 50.0002 214.357 50.0002H206.5C206.214 50.0002 206 50.0716 205.857 50.1431C205.714 50.2145 205.643 50.3574 205.571 50.6431L205.143 53.1431H214.571Z" fill="#0D0F0F"/>
</svg>
